# xmcd
#
# Track frame offsets: 
#        150
#        20787
#        34980
#        56270
#        71830
#        94745
#        108108
#        136240
#        153602
#        169763
#        184801
#        201486
#        214869
#        227629
#        240807
#
# Disc length: 3376 seconds
#
# Revision: 1
# Processed by: cddbd v1.5.2PL0 Copyright (c) Steve Scherf et al.
# Submitted via: ExactAudioCopyFreeDBPlugin 1.0
#
DISCID=cf0d2e0f
DTITLE=Various Artist - El Barrio: Sounds from the Spanish Harlem Str
DTITLE=eets
DYEAR=2008
DGENRE=Salsa
TTITLE0=Ray Barretto - Elefante
TTITLE1=Jimmy Sabater - Times Are Changing
TTITLE2=Orchestra Harlow featuring Ismael Miranda - Rise Up
TTITLE3=Roberto Roena and the Apollo Sound - Consolacion
TTITLE4=Tito Puente - Safari
TTITLE5=The New Swing Sextet - Revolucianado
TTITLE6=Eddie Palmieri - Chocolate Ice Cream
TTITLE7=Pete and Louie - Evil Ways
TTITLE8=TNT Boys - Musica De Alma
TTITLE9=Joe Bataan - Crystal Blue Persuasion
TTITLE10=Willie Colon - MC2 (Theme Realides)
TTITLE11=Orquestra Harlow - Me And My Monkey
TTITLE12=Pete Rodriguez - Here Comes The Judge
TTITLE13=Al Escobar - Ape Walk
TTITLE14=Ralfi Pagan - Rat Race
EXTD=YEAR: 2008
EXTT0=
EXTT1=
EXTT2=
EXTT3=
EXTT4=
EXTT5=
EXTT6=
EXTT7=
EXTT8=
EXTT9=
EXTT10=
EXTT11=
EXTT12=
EXTT13=
EXTT14=
PLAYORDER=
